<svg xmlns="http://www.w3.org/2000/svg" version="1.0" width="512.000000pt" height="512.000000pt" viewBox="0 0 512.000000 512.000000" preserveAspectRatio="xMidYMid meet">
<g transform="translate(0.000000,512.000000) scale(0.100000,-0.100000)" fill="#000000" stroke="none">
<path d="M880 4720 l0 -240 -95 0 c-88 0 -98 -2 -120 -25 l-25 -24 0 -511 0 -511 25 -24 c23 -24 29 -25 160 -25 l135 0 0 -80 0 -80 -135 0 c-131 0 -137 -1 -160 -25 -25 -24 -25 -27 -25 -200 l0 -175 40 0 40 0 0 -89 0 -89 -84 -70 c-227 -192 -392 -476 -453 -780 -24 -120 -24 -384 0 -504 84 -420 354 -775 733 -966 84 -42 242 -96 349 -118 121 -25 383 -26 505 -1 239 48 445 147 637 308 l82 69 115 0 116 0 0 -40 0 -40 729 0 729 0 33 -137 c48 -194 32 -183 269 -183 189 0 191 0 215 25 24 23 25 29 25 160 l0 135 95 0 c88 0 98 2 120 25 l25 24 0 671 0 671 -25 24 c-23 24 -29 25 -160 25 l-135 0 0 80 0 80 135 0 c131 0 137 1 160 25 l25 24 0 511 0 511 -25 24 c-23 24 -29 25 -160 25 l-135 0 0 80 0 80 135 0 c131 0 137 1 160 25 l25 24 0 511 0 511 -25 24 -24 25 -1776 0 -1775 0 0 160 0 160 -80 0 -80 0 0 -160 0 -160 -80 0 -80 0 0 240 0 240 -80 0 -80 0 0 -240z m3600 -800 l0 -80 -560 0 -560 0 0 80 0 80 560 0 560 0 0 -80z m0 -680 l0 -40 -1680 0 -1680 0 0 40 0 40 1680 0 1680 0 0 -40z m-2710 -549 c477 -108 822 -458 926 -941 26 -122 24 -352 -4 -476 -60 -265 -193 -489 -391 -660 -283 -245 -669 -344 -1030 -265 -475 105 -823 458 -927 941 -26 123 -25 353 4 475 120 523 517 881 1052 949 72 9 287 -4 370 -23z m2710 -51 l0 -80 -560 0 -560 0 0 80 0 80 560 0 560 0 0 -80z m0 -680 l0 -40 -720 0 -720 0 0 -40 0 -41 -96 3 -96 3 -24 75 c-13 41 -24 76 -24 78 0 1 378 2 840 2 l840 0 0 -40z m80 -1600 l0 -40 -84 0 c-47 0 -87 3 -89 8 -3 4 -8 22 -12 40 l-7 32 96 0 96 0 0 -40z"/>
<path d="M1280 2080 l0 -80 -80 0 -80 0 0 -80 0 -80 80 0 80 0 0 -120 0 -120 -80 0 -80 0 0 -80 0 -80 80 0 80 0 0 -120 0 -120 -80 0 -80 0 0 -80 0 -80 80 0 80 0 0 -80 0 -80 80 0 80 0 0 80 0 80 80 0 80 0 0 -80 0 -80 80 0 80 0 0 79 0 79 52 18 c69 23 148 100 171 168 31 91 16 190 -39 263 l-25 33 25 33 c55 73 70 172 39 263 -23 68 -102 145 -171 168 l-52 18 0 79 0 79 -80 0 -80 0 0 -80 0 -80 -80 0 -80 0 0 80 0 80 -80 0 -80 0 0 -80z m491 -255 c35 -19 69 -70 69 -105 0 -35 -34 -86 -69 -105 -23 -11 -64 -15 -181 -15 l-150 0 0 120 0 120 150 0 c117 0 158 -4 181 -15z m0 -400 c35 -19 69 -70 69 -105 0 -35 -34 -86 -69 -105 -23 -11 -64 -15 -181 -15 l-150 0 0 120 0 120 150 0 c117 0 158 -4 181 -15z"/>
<path d="M720 1520 l0 -80 80 0 80 0 0 80 0 80 -80 0 -80 0 0 -80z"/>
<path d="M2160 1520 l0 -80 80 0 80 0 0 80 0 80 -80 0 -80 0 0 -80z"/>
</g>
</svg>